<svg version="1.2" xmlns="http://www.w3.org/2000/svg" viewBox="0 0 2048 2048" width="2048" height="2048">
	<title>YouTube_social_red_circle_(2017)</title>
	<style>
		.s0 { fill: #ff0000 } 
		.s1 { fill: #ffffff } 
	</style>
	<g id="Background">
		<path id="Path 0" class="s0" d="m965.5 1.1c-7.7 0.4-21.9 1.5-31.5 2.4-9.6 0.9-25.1 2.5-34.5 3.6-9.4 1.1-24.2 3.2-33 4.5-8.8 1.4-22.1 3.6-29.5 5-7.4 1.4-20.9 4.1-30 6-9.1 2-22.8 5.1-30.5 7-7.7 1.9-22.5 5.9-33 8.9-10.5 2.9-26.9 7.9-36.5 11-9.6 3.2-25.1 8.5-34.5 12-9.4 3.4-25.3 9.6-35.5 13.8-10.2 4.1-25.7 10.7-34.5 14.7-8.8 4-25.3 11.9-36.8 17.6-11.4 5.7-27.3 14.1-35.5 18.6-8.1 4.5-22.6 12.8-32.2 18.6-9.6 5.7-24.7 15.2-33.5 20.9-8.8 5.8-21.2 14.2-27.5 18.6-6.3 4.4-18.7 13.5-27.5 20.1-8.8 6.6-20.5 15.6-26 20-5.5 4.4-14.3 11.6-19.5 16-5.2 4.5-15.6 13.4-23 20-7.4 6.6-26.3 24.8-42 40.5-15.7 15.7-34.7 35.6-42.1 44.1-7.4 8.5-17.3 20-22 25.6-4.6 5.5-13.6 16.8-20 25-6.4 8.2-16.5 21.6-22.4 29.9-6 8.2-16.5 23.6-23.5 34-6.9 10.4-16.8 26.2-22.1 35-5.3 8.8-13.9 23.6-19.1 33-5.3 9.4-14.3 26.6-20.2 38.2-5.8 11.7-13.9 28.6-18 37.5-4 9-11 25.5-15.6 36.8-4.5 11.3-10.8 27.7-14 36.5-3.2 8.8-8.1 23.2-11 32-2.8 8.8-7.6 24.5-10.5 35-3 10.5-7 25.3-8.9 33-1.9 7.7-5 21.4-7 30.5-1.9 9.1-4.6 22.6-6 30-1.4 7.4-3.6 20.7-5 29.5-1.3 8.8-3.4 23.6-4.5 33-1.1 9.4-2.7 24.6-3.6 34-0.8 9.4-1.9 25.1-2.5 35-0.6 9.9-1 34.9-1 55.5 0 20.6 0.4 45.6 1 55.5 0.6 9.9 1.7 25.7 2.5 35 0.9 9.3 2.4 24.4 3.5 33.5 1.1 9.1 2.9 22.6 4.1 30 1.1 7.4 3.2 19.8 4.5 27.5 1.4 7.7 3.9 20.5 5.5 28.5 1.7 8 5 22.8 7.5 33 2.5 10.2 6.9 27 9.9 37.5 2.9 10.5 7.9 26.9 11 36.5 3.2 9.6 8.6 25.2 12 34.5 3.5 9.3 9.1 24 12.5 32.5 3.4 8.5 9.9 23.8 14.5 34 4.5 10.2 12.8 27.6 18.4 38.7 5.5 11.2 14 27.4 18.7 36 4.8 8.7 13.4 23.7 19.2 33.3 5.7 9.6 15.9 25.8 22.6 36 6.7 10.2 16.9 25 22.6 33 5.7 8 15.4 21 21.4 28.9 6.1 8 17.1 21.7 24.5 30.5 7.4 8.9 18.6 21.9 24.9 29.1 6.4 7.2 24 25.4 39.1 40.6 15.2 15.1 33.5 32.7 40.6 39.1 7.1 6.3 20.4 17.7 29.5 25.3 9.1 7.5 21.9 17.8 28.5 22.8 6.6 5.1 17.2 13 23.5 17.6 6.3 4.7 21.6 15.3 34 23.6 12.4 8.3 31.3 20.3 42 26.7 10.7 6.4 25.8 15.1 33.5 19.4 7.7 4.2 25.5 13.4 39.5 20.3 14 7 35.2 16.8 47 21.8 11.8 5.1 29.6 12.4 39.5 16.2 9.9 3.8 26.1 9.7 36 13 9.9 3.4 27.9 9.1 40 12.7 12.1 3.6 31.9 8.9 44 11.9 12.1 3 28.8 6.8 37 8.5 8.3 1.7 24 4.6 35 6.5 11 1.9 28.3 4.6 38.5 5.9 10.2 1.4 28.2 3.4 40 4.5 11.8 1.1 31.4 2.5 43.5 3.2 14.1 0.7 38.2 1 67 0.6 27.1-0.3 52.3-1.2 63.5-2.1 10.2-0.9 25-2.3 33-3.1 8-0.9 21-2.5 29-3.6 8-1.1 22.6-3.4 32.5-5 9.9-1.7 25.7-4.6 35-6.5 9.3-1.9 26-5.7 37-8.4 11-2.7 28.8-7.4 39.5-10.5 10.7-3.1 25.8-7.7 33.5-10.2 7.7-2.5 21.2-7.1 30-10.3 8.8-3.2 24.1-9 34-13 9.9-4 26.3-10.9 36.5-15.5 10.2-4.5 27.6-12.8 38.8-18.4 11.1-5.5 27.3-14 36-18.8 8.6-4.7 24-13.6 34.2-19.7 10.2-6.1 27.7-17.2 39-24.7 11.3-7.5 28.2-19.2 37.5-26 9.3-6.8 23.8-17.8 32-24.3 8.3-6.6 22.4-18.3 31.5-26.1 9.1-7.8 23.3-20.5 31.5-28.2 8.3-7.7 23.6-22.7 34-33.4 10.5-10.7 24.4-25.5 31-32.9 6.6-7.4 15.7-17.8 20.1-23 4.4-5.2 13.4-16.3 20-24.5 6.5-8.3 17.5-22.7 24.3-32 6.8-9.3 18.5-26.2 26-37.5 7.5-11.3 18.9-29.3 25.3-40 6.4-10.7 15-25.7 19.2-33.3 4.2-7.5 12.4-23.3 18.2-35 5.9-11.6 14.4-29.5 18.9-39.7 4.6-10.2 11.1-25.5 14.5-34 3.4-8.5 9-23.2 12.5-32.5 3.4-9.3 8.5-24 11.3-32.5 2.8-8.5 7.6-24.3 10.7-35 3.1-10.7 7.8-28.5 10.5-39.5 2.7-11 6.5-27.7 8.4-37 1.9-9.3 4.8-25.1 6.5-35 1.6-9.9 3.9-24.5 5-32.5 1.1-8 2.9-23.3 4-34 1.1-10.7 2.6-26.7 3.3-35.5 0.9-10.4 1.3-35 1.3-70.5 0-35.5-0.4-60.1-1.3-70.5-0.7-8.8-2.2-24.8-3.3-35.5-1.1-10.7-2.9-26-4-34-1.1-8-3.4-22.6-5-32.5-1.7-9.9-4.6-25.6-6.5-35-1.9-9.4-5.5-25.3-8-35.5-2.5-10.2-6.9-27-9.9-37.5-2.9-10.5-7.9-26.9-11-36.5-3.2-9.6-8.6-25.1-12-34.5-3.5-9.4-9.1-24-12.5-32.5-3.4-8.5-9.9-23.8-14.5-34-4.5-10.2-13-28.1-18.9-39.8-5.8-11.6-14.3-27.8-18.8-36-4.5-8.1-12.8-22.6-18.6-32.2-5.7-9.6-15.9-25.8-22.6-36-6.7-10.2-17.5-25.9-24-35-6.6-9.1-17.1-23.2-23.5-31.4-6.4-8.2-16.5-20.8-22.5-28-6.1-7.2-16.4-19.2-23-26.6-6.6-7.4-24.4-25.9-39.5-41.1-15.2-15.1-33.7-32.9-41.1-39.5-7.4-6.6-19.4-16.9-26.6-23-7.2-6-19.8-16.1-28-22.5-8.2-6.4-22.3-16.9-31.4-23.5-9.1-6.5-24.8-17.3-35-24-10.2-6.7-26.4-16.9-36-22.7-9.6-5.7-25.2-14.6-34.5-19.7-9.3-5.2-28.7-15.1-43-22.1-14.3-7-35.5-16.8-47-21.7-11.5-4.9-29.1-12-39-15.7-9.9-3.7-27.9-10-40-14.1-12.1-4-30.8-9.8-41.5-12.8-10.7-3-27.8-7.5-38-10-10.2-2.5-25-5.8-33-7.5-8-1.6-20.8-4.1-28.5-5.5-7.7-1.4-23.2-3.9-34.5-5.5-11.3-1.6-29.5-3.9-40.5-5-11-1.1-26.1-2.6-33.5-3.2-7.4-0.6-36.9-1.2-65.5-1.4-28.6-0.2-58.3 0.1-66 0.6z"/>
		<path id="Path 1" class="s1" d="m892.5 542c-23.6 0.5-61.2 1.3-83.5 2-22.3 0.6-57.1 1.7-77.5 2.5-20.4 0.9-49.8 2.2-65.5 3-15.7 0.9-38 2.2-49.5 3-11.5 0.8-30.9 2.4-43 3.5-12.1 1.2-29.2 3-38 4.1-8.8 1.1-21.4 2.9-28 4-6.6 1.1-15.4 2.9-19.5 3.9-4.1 1.1-11.5 3.3-16.5 5.1-5 1.7-13.3 5.3-18.5 8-5.2 2.6-13.3 7.4-18 10.5-4.7 3.1-11.9 8.5-16 11.9-4.1 3.4-10.7 9.6-14.5 13.6-3.9 4.1-9.7 11-13.1 15.4-3.3 4.4-7.8 10.9-10.1 14.5-2.2 3.6-5.6 9.6-7.5 13.5-2 3.9-5.1 11.3-7.1 16.5-1.9 5.2-4.7 14-6.1 19.5-1.3 5.5-3.6 16-5 23.3-1.4 7.2-3.9 22.5-5.6 34-1.6 11.4-3.8 29.2-4.9 39.7-1.1 10.5-2.9 30.5-4 44.5-1.1 14-2.5 33.8-3.1 44-0.5 10.2-1.5 28.2-2.1 40-0.6 11.8-1.3 48-1.6 80.5-0.4 37.1-0.1 71.8 0.6 93.5 0.7 19 1.8 46.9 2.7 62 0.8 15.1 2.1 36.3 2.9 47 0.9 10.7 2.7 31 4.1 45 1.4 14 3.9 34.5 5.5 45.5 1.6 11 4 25.8 5.5 33 1.4 7.2 3.4 16.6 4.5 21 1.1 4.4 3.1 11.6 4.6 16 1.4 4.4 5.1 13.4 8.3 20 3.2 6.6 8.4 15.8 11.5 20.5 3.2 4.7 8.6 11.9 12 16 3.4 4.1 9.3 10.4 13.1 14 3.8 3.6 10.5 9.2 14.9 12.6 4.4 3.3 11.6 8.2 16 10.9 4.4 2.7 11.6 6.5 16 8.5 4.4 2.1 11.4 5 15.5 6.4 4.1 1.5 12 3.8 17.5 5.1 5.5 1.3 15.6 3.3 22.5 4.4 6.9 1.1 19.7 3 28.5 4 8.8 1.1 25.9 3 38 4.1 12.1 1.1 31.7 2.6 43.5 3.5 11.8 0.8 34.1 2.2 49.5 3 15.4 0.8 45.1 2.2 66 3 20.9 0.8 53.5 1.9 72.5 2.5 19 0.5 64 1.5 100 2.1 40.2 0.7 101.3 0.9 158 0.6 50.9-0.4 110.5-1.1 132.5-1.7 22-0.5 54.8-1.4 73-2 18.2-0.6 48.3-1.7 67-2.5 18.7-0.9 45.5-2.2 59.5-3 14-0.9 34.3-2.2 45-3.1 10.7-0.8 26.5-2.1 35-2.9 8.5-0.9 22.9-2.4 32-3.5 9.1-1.2 21.9-3 28.5-4.1 6.6-1.1 17-3.3 23-4.9 6-1.6 15.5-4.8 21-7 5.5-2.3 12.9-5.8 16.5-7.7 3.6-2 9.9-5.9 14-8.6 4.1-2.8 11.1-8 15.5-11.7 4.4-3.6 11.3-10.2 15.3-14.6 4-4.3 10.1-11.9 13.7-16.9 3.5-5 8.7-13.3 11.4-18.5 2.7-5.2 6.6-13.8 8.6-19 2.1-5.2 5.2-15.3 7-22.5 1.9-7.2 4.7-20.2 6.4-29 1.6-8.8 4.1-24.1 5.5-34 1.4-9.9 3.4-26.5 4.5-37 1.1-10.5 2.7-27.1 3.5-37 0.9-9.9 2.2-29.3 3.1-43 0.8-13.8 2-34.7 2.6-46.5 0.6-11.8 1.3-49 1.6-82.5 0.3-37.9 0.1-73.7-0.6-94.5-0.6-18.4-1.6-42-2.2-52.5-0.5-10.5-1.6-28.7-2.4-40.5-0.9-11.8-2.4-31-3.6-42.5-1.1-11.5-3.1-29.8-4.5-40.5-1.3-10.7-3.8-27.4-5.5-37-1.6-9.6-4.7-24.7-6.8-33.5-2.2-8.8-5.6-20.5-7.6-26-2.1-5.5-5.7-13.8-8.1-18.5-2.4-4.7-6.9-12.4-10.1-17.2-3.2-4.8-9.2-12.6-13.3-17.4-4.1-4.7-10.4-11.2-14-14.3-3.6-3.2-9.2-7.8-12.5-10.3-3.3-2.5-9.2-6.5-13-8.8-3.8-2.4-11-6.3-16-8.6-5-2.4-14-5.9-20-7.9-6-2-17.5-4.9-25.5-6.5-8-1.6-22.8-4-33-5.4-10.2-1.4-27.7-3.4-39-4.5-11.3-1.2-32.9-3-48-4.1-15.1-1.1-40.3-2.6-56-3.5-15.7-0.8-38.8-1.9-51.5-2.5-12.7-0.5-37.2-1.4-54.5-2-17.3-0.6-48.6-1.5-69.5-2.1-20.9-0.5-88.2-1.1-149.5-1.3-61.3-0.3-130.9 0-154.5 0.4z"/>
		<path id="Path 2" class="s0" d="m886.1 1023.9c-0.1 113.4 0.2 206.1 0.6 206.1 0.5 0 33.4-18.7 73.3-41.6 39.9-22.9 119.5-68.6 177-101.7 57.5-33 105.3-60.5 106.3-61.1 1.5-0.9-26.6-17.5-176.4-104.1-98-56.6-178.8-103.1-179.5-103.3-1-0.3-1.2 42.1-1.3 205.7z"/>
	</g>
</svg>